<svg xmlns="http://www.w3.org/2000/svg"><defs><pattern id="a" width="20" height="20" patternUnits="userSpaceOnUse"><rect width="100%" height="100%" fill="hsla(121, 45%, 36%, 1)"/><path fill="hsla(122, 44%, 34%, 1)" d="M-10-10A10 10 0 0 0-20 0a10 10 0 0 0 10 10A10 10 0 0 1 0 0a10 10 0 0 0-10-10zm20 0A10 10 0 0 0 0 0a10 10 0 0 1 10 10A10 10 0 0 1 20 0a10 10 0 0 0-10-10zm20 0A10 10 0 0 0 20 0a10 10 0 0 1 10 10A10 10 0 0 1 40 0a10 10 0 0 0-10-10zm-40 20a10 10 0 0 0-10 10 10 10 0 0 0 10 10A10 10 0 0 1 0 20a10 10 0 0 0-10-10zm20 0A10 10 0 0 0 0 20a10 10 0 0 1 10 10 10 10 0 0 1 10-10 10 10 0 0 0-10-10zm20 0a10 10 0 0 0-10 10 10 10 0 0 1 10 10 10 10 0 0 1 10-10 10 10 0 0 0-10-10z"/></pattern></defs><rect width="800%" height="800%" fill="url(#a)"/></svg>