<svg id="Layer_1" data-name="Layer 1" xmlns="http://www.w3.org/2000/svg" viewBox="0 0 75.1 71.35"><defs><style>.cls-1{fill:#fff;}</style></defs><path class="cls-1" d="M34.37,38c-3.08-5.71-6.1-5.12-8.45-3.76-2.72,1.82-3.73,3.69-1.88,8.45,4.27,10.47,10.81,22.94,17.84,31H67.22c8.91-6.6,16.07-38,3.75-39.43-1.13,0-2.93.19-3.75.94a4.59,4.59,0,0,0-4.69-4.69c-1.63,0-2.82.94-3.76,2.82a4.5,4.5,0,0,0-4.69-4.7,5.44,5.44,0,0,0-4.69,2.82V11.71a5.64,5.64,0,0,0-11.27,0v33.8Z" transform="translate(-2.45 -2.33)"/><path class="cls-1" d="M2.45,12.66A1.75,1.75,0,0,1,3,11.34l8.45-8.45a1.93,1.93,0,0,1,2.68,0,2,2,0,0,1,0,2.68L8.84,10.78h18a1.88,1.88,0,0,1,0,3.75h-18l5.26,5.26a1.88,1.88,0,1,1-2.67,2.64L3,14a1.79,1.79,0,0,1-.53-1.32Z" transform="translate(-2.45 -2.33)"/></svg>