<svg id="Layer_1" data-name="Layer 1" xmlns="http://www.w3.org/2000/svg" xmlns:xlink="http://www.w3.org/1999/xlink" viewBox="0 0 768 768"><defs><style>.cls-1{fill:#fff;}.cls-2{fill:url(#linear-gradient);}.cls-3{fill:url(#linear-gradient-2);}.cls-4{fill:url(#linear-gradient-3);}</style><linearGradient id="linear-gradient" x1="177.48" y1="150.61" x2="177.5" y2="150.61" gradientUnits="userSpaceOnUse"><stop offset="0" stop-color="#cf1b1b"/><stop offset="1" stop-color="#cf1b1b"/></linearGradient><linearGradient id="linear-gradient-2" x1="287.32" y1="392.35" x2="572.98" y2="392.35" xlink:href="#linear-gradient"/><linearGradient id="linear-gradient-3" x1="299.79" y1="100.7" x2="357.78" y2="100.7" gradientTransform="translate(-89.33 163.57)" xlink:href="#linear-gradient"/></defs><circle class="cls-1" cx="384" cy="384" r="384"/><text x="-8" y="-8"/><path class="cls-2" d="M177.5,151.06c0-.13,0-.26,0-.4v-.5C177.48,150.46,177.48,150.76,177.5,151.06Z" transform="translate(-8 -8)"/><path class="cls-3" d="M573,498.86a142.83,142.83,0,0,1-285.66.15V164.69c0-11.91,10.9-21.69,24.21-21.69h9.69c13.31,0,24.21,9.78,24.21,21.69V235h67.78a24.29,24.29,0,0,1,24.21,24.21v9.68a24.28,24.28,0,0,1-24.21,24.21H345.43V501.28a18.27,18.27,0,0,0,.24,2.38,84.67,84.67,0,1,0,84.48-89.53H409.92a21.42,21.42,0,0,1-6.39-.92,24.16,24.16,0,0,1-17.82-23.28v-7.85a24.17,24.17,0,0,1,17.82-23.29v-.24A142.75,142.75,0,0,1,573,498.86Z" transform="translate(-8 -8)"/><rect class="cls-4" x="210.46" y="236.06" width="57.99" height="56.43" rx="28.21" transform="translate(495.73 16.82) rotate(90)"/></svg>